<svg xmlns="http://www.w3.org/2000/svg" viewBox="0 0 71 16" shape-rendering="crispEdges" width="568" height="128">
<rect x="0" y="0" width="1" height="1" fill="#15171c"></rect><rect x="1" y="0" width="1" height="1" fill="#15171c"></rect><rect x="2" y="0" width="1" height="1" fill="#15171c"></rect><rect x="3" y="0" width="1" height="1" fill="#15171c"></rect><rect x="4" y="0" width="1" height="1" fill="#15171c"></rect><rect x="5" y="0" width="1" height="1" fill="#15171c"></rect><rect x="6" y="0" width="1" height="1" fill="#15171c"></rect><rect x="7" y="0" width="1" height="1" fill="#15171c"></rect><rect x="8" y="0" width="1" height="1" fill="#15171c"></rect><rect x="9" y="0" width="1" height="1" fill="#15171c"></rect><rect x="10" y="0" width="1" height="1" fill="#15171c"></rect><rect x="11" y="0" width="1" height="1" fill="#15171c"></rect><rect x="12" y="0" width="1" height="1" fill="#15171c"></rect><rect x="13" y="0" width="1" height="1" fill="#15171c"></rect><rect x="14" y="0" width="1" height="1" fill="#15171c"></rect><rect x="15" y="0" width="1" height="1" fill="#15171c"></rect><rect x="0" y="1" width="1" height="1" fill="#15171c"></rect><rect x="1" y="1" width="1" height="1" fill="#ffd23f"></rect><rect x="2" y="1" width="1" height="1" fill="#ffd23f"></rect><rect x="3" y="1" width="1" height="1" fill="#ffd23f"></rect><rect x="4" y="1" width="1" height="1" fill="#ffd23f"></rect><rect x="5" y="1" width="1" height="1" fill="#ffd23f"></rect><rect x="6" y="1" width="1" height="1" fill="#ffd23f"></rect><rect x="7" y="1" width="1" height="1" fill="#ffd23f"></rect><rect x="8" y="1" width="1" height="1" fill="#ffd23f"></rect><rect x="9" y="1" width="1" height="1" fill="#ffd23f"></rect><rect x="10" y="1" width="1" height="1" fill="#ffd23f"></rect><rect x="11" y="1" width="1" height="1" fill="#ffd23f"></rect><rect x="12" y="1" width="1" height="1" fill="#ffd23f"></rect><rect x="13" y="1" width="1" height="1" fill="#ffd23f"></rect><rect x="14" y="1" width="1" height="1" fill="#ffd23f"></rect><rect x="15" y="1" width="1" height="1" fill="#15171c"></rect><rect x="0" y="2" width="1" height="1" fill="#15171c"></rect><rect x="1" y="2" width="1" height="1" fill="#ffd23f"></rect><rect x="2" y="2" width="1" height="1" fill="#ffd23f"></rect><rect x="3" y="2" width="1" height="1" fill="#ffd23f"></rect><rect x="4" y="2" width="1" height="1" fill="#ffd23f"></rect><rect x="5" y="2" width="1" height="1" fill="#ffd23f"></rect><rect x="6" y="2" width="1" height="1" fill="#ffd23f"></rect><rect x="7" y="2" width="1" height="1" fill="#ffd23f"></rect><rect x="8" y="2" width="1" height="1" fill="#ffd23f"></rect><rect x="9" y="2" width="1" height="1" fill="#ffd23f"></rect><rect x="10" y="2" width="1" height="1" fill="#ffd23f"></rect><rect x="11" y="2" width="1" height="1" fill="#ffd23f"></rect><rect x="12" y="2" width="1" height="1" fill="#ffd23f"></rect><rect x="13" y="2" width="1" height="1" fill="#ffd23f"></rect><rect x="14" y="2" width="1" height="1" fill="#c58f1a"></rect><rect x="15" y="2" width="1" height="1" fill="#15171c"></rect><rect x="0" y="3" width="1" height="1" fill="#15171c"></rect><rect x="1" y="3" width="1" height="1" fill="#ffd23f"></rect><rect x="2" y="3" width="1" height="1" fill="#ffd23f"></rect><rect x="3" y="3" width="1" height="1" fill="#15171c"></rect><rect x="4" y="3" width="1" height="1" fill="#15171c"></rect><rect x="5" y="3" width="1" height="1" fill="#15171c"></rect><rect x="6" y="3" width="1" height="1" fill="#15171c"></rect><rect x="7" y="3" width="1" height="1" fill="#15171c"></rect><rect x="8" y="3" width="1" height="1" fill="#15171c"></rect><rect x="9" y="3" width="1" height="1" fill="#15171c"></rect><rect x="10" y="3" width="1" height="1" fill="#ffd23f"></rect><rect x="11" y="3" width="1" height="1" fill="#ffd23f"></rect><rect x="12" y="3" width="1" height="1" fill="#ffd23f"></rect><rect x="13" y="3" width="1" height="1" fill="#ffd23f"></rect><rect x="14" y="3" width="1" height="1" fill="#c58f1a"></rect><rect x="15" y="3" width="1" height="1" fill="#15171c"></rect><rect x="0" y="4" width="1" height="1" fill="#15171c"></rect><rect x="1" y="4" width="1" height="1" fill="#ffd23f"></rect><rect x="2" y="4" width="1" height="1" fill="#ffd23f"></rect><rect x="3" y="4" width="1" height="1" fill="#15171c"></rect><rect x="4" y="4" width="1" height="1" fill="#ffd23f"></rect><rect x="5" y="4" width="1" height="1" fill="#ffd23f"></rect><rect x="6" y="4" width="1" height="1" fill="#ffd23f"></rect><rect x="7" y="4" width="1" height="1" fill="#ffd23f"></rect><rect x="8" y="4" width="1" height="1" fill="#ffd23f"></rect><rect x="9" y="4" width="1" height="1" fill="#15171c"></rect><rect x="10" y="4" width="1" height="1" fill="#ffd23f"></rect><rect x="11" y="4" width="1" height="1" fill="#ffd23f"></rect><rect x="12" y="4" width="1" height="1" fill="#ffd23f"></rect><rect x="13" y="4" width="1" height="1" fill="#ffd23f"></rect><rect x="14" y="4" width="1" height="1" fill="#c58f1a"></rect><rect x="15" y="4" width="1" height="1" fill="#15171c"></rect><rect x="0" y="5" width="1" height="1" fill="#15171c"></rect><rect x="1" y="5" width="1" height="1" fill="#ffd23f"></rect><rect x="2" y="5" width="1" height="1" fill="#ffd23f"></rect><rect x="3" y="5" width="1" height="1" fill="#15171c"></rect><rect x="4" y="5" width="1" height="1" fill="#ffd23f"></rect><rect x="5" y="5" width="1" height="1" fill="#ffd23f"></rect><rect x="6" y="5" width="1" height="1" fill="#ffd23f"></rect><rect x="7" y="5" width="1" height="1" fill="#ffd23f"></rect><rect x="8" y="5" width="1" height="1" fill="#ffd23f"></rect><rect x="9" y="5" width="1" height="1" fill="#15171c"></rect><rect x="10" y="5" width="1" height="1" fill="#ffd23f"></rect><rect x="11" y="5" width="1" height="1" fill="#ffd23f"></rect><rect x="12" y="5" width="1" height="1" fill="#ffd23f"></rect><rect x="13" y="5" width="1" height="1" fill="#ffd23f"></rect><rect x="14" y="5" width="1" height="1" fill="#c58f1a"></rect><rect x="15" y="5" width="1" height="1" fill="#15171c"></rect><rect x="20" y="5" width="1" height="1" fill="#15171c"></rect><rect x="21" y="5" width="1" height="1" fill="#15171c"></rect><rect x="22" y="5" width="1" height="1" fill="#15171c"></rect><rect x="23" y="5" width="1" height="1" fill="#15171c"></rect><rect x="27" y="5" width="1" height="1" fill="#15171c"></rect><rect x="28" y="5" width="1" height="1" fill="#15171c"></rect><rect x="29" y="5" width="1" height="1" fill="#15171c"></rect><rect x="33" y="5" width="1" height="1" fill="#15171c"></rect><rect x="34" y="5" width="1" height="1" fill="#15171c"></rect><rect x="35" y="5" width="1" height="1" fill="#15171c"></rect><rect x="38" y="5" width="1" height="1" fill="#15171c"></rect><rect x="39" y="5" width="1" height="1" fill="#15171c"></rect><rect x="40" y="5" width="1" height="1" fill="#15171c"></rect><rect x="41" y="5" width="1" height="1" fill="#15171c"></rect><rect x="49" y="5" width="1" height="1" fill="#15171c"></rect><rect x="50" y="5" width="1" height="1" fill="#15171c"></rect><rect x="51" y="5" width="1" height="1" fill="#15171c"></rect><rect x="52" y="5" width="1" height="1" fill="#15171c"></rect><rect x="54" y="5" width="1" height="1" fill="#15171c"></rect><rect x="55" y="5" width="1" height="1" fill="#15171c"></rect><rect x="56" y="5" width="1" height="1" fill="#15171c"></rect><rect x="57" y="5" width="1" height="1" fill="#15171c"></rect><rect x="58" y="5" width="1" height="1" fill="#15171c"></rect><rect x="61" y="5" width="1" height="1" fill="#15171c"></rect><rect x="62" y="5" width="1" height="1" fill="#15171c"></rect><rect x="63" y="5" width="1" height="1" fill="#15171c"></rect><rect x="66" y="5" width="1" height="1" fill="#15171c"></rect><rect x="67" y="5" width="1" height="1" fill="#15171c"></rect><rect x="68" y="5" width="1" height="1" fill="#15171c"></rect><rect x="69" y="5" width="1" height="1" fill="#15171c"></rect><rect x="70" y="5" width="1" height="1" fill="#15171c"></rect><rect x="0" y="6" width="1" height="1" fill="#15171c"></rect><rect x="1" y="6" width="1" height="1" fill="#ffd23f"></rect><rect x="2" y="6" width="1" height="1" fill="#ffd23f"></rect><rect x="3" y="6" width="1" height="1" fill="#15171c"></rect><rect x="4" y="6" width="1" height="1" fill="#ffd23f"></rect><rect x="5" y="6" width="1" height="1" fill="#ffd23f"></rect><rect x="6" y="6" width="1" height="1" fill="#ffd23f"></rect><rect x="7" y="6" width="1" height="1" fill="#ffd23f"></rect><rect x="8" y="6" width="1" height="1" fill="#ffd23f"></rect><rect x="9" y="6" width="1" height="1" fill="#15171c"></rect><rect x="10" y="6" width="1" height="1" fill="#ffd23f"></rect><rect x="11" y="6" width="1" height="1" fill="#ffd23f"></rect><rect x="12" y="6" width="1" height="1" fill="#ffd23f"></rect><rect x="13" y="6" width="1" height="1" fill="#ffd23f"></rect><rect x="14" y="6" width="1" height="1" fill="#c58f1a"></rect><rect x="15" y="6" width="1" height="1" fill="#15171c"></rect><rect x="20" y="6" width="1" height="1" fill="#15171c"></rect><rect x="24" y="6" width="1" height="1" fill="#15171c"></rect><rect x="26" y="6" width="1" height="1" fill="#15171c"></rect><rect x="30" y="6" width="1" height="1" fill="#15171c"></rect><rect x="32" y="6" width="1" height="1" fill="#15171c"></rect><rect x="36" y="6" width="1" height="1" fill="#15171c"></rect><rect x="38" y="6" width="1" height="1" fill="#15171c"></rect><rect x="42" y="6" width="1" height="1" fill="#15171c"></rect><rect x="48" y="6" width="1" height="1" fill="#15171c"></rect><rect x="56" y="6" width="1" height="1" fill="#15171c"></rect><rect x="60" y="6" width="1" height="1" fill="#15171c"></rect><rect x="64" y="6" width="1" height="1" fill="#15171c"></rect><rect x="68" y="6" width="1" height="1" fill="#15171c"></rect><rect x="0" y="7" width="1" height="1" fill="#15171c"></rect><rect x="1" y="7" width="1" height="1" fill="#ffd23f"></rect><rect x="2" y="7" width="1" height="1" fill="#ffd23f"></rect><rect x="3" y="7" width="1" height="1" fill="#15171c"></rect><rect x="4" y="7" width="1" height="1" fill="#15171c"></rect><rect x="5" y="7" width="1" height="1" fill="#15171c"></rect><rect x="6" y="7" width="1" height="1" fill="#15171c"></rect><rect x="7" y="7" width="1" height="1" fill="#15171c"></rect><rect x="8" y="7" width="1" height="1" fill="#15171c"></rect><rect x="9" y="7" width="1" height="1" fill="#15171c"></rect><rect x="10" y="7" width="1" height="1" fill="#ffd23f"></rect><rect x="11" y="7" width="1" height="1" fill="#ffd23f"></rect><rect x="12" y="7" width="1" height="1" fill="#ffd23f"></rect><rect x="13" y="7" width="1" height="1" fill="#ffd23f"></rect><rect x="14" y="7" width="1" height="1" fill="#c58f1a"></rect><rect x="15" y="7" width="1" height="1" fill="#15171c"></rect><rect x="20" y="7" width="1" height="1" fill="#15171c"></rect><rect x="24" y="7" width="1" height="1" fill="#15171c"></rect><rect x="26" y="7" width="1" height="1" fill="#15171c"></rect><rect x="30" y="7" width="1" height="1" fill="#15171c"></rect><rect x="32" y="7" width="1" height="1" fill="#15171c"></rect><rect x="36" y="7" width="1" height="1" fill="#15171c"></rect><rect x="38" y="7" width="1" height="1" fill="#15171c"></rect><rect x="42" y="7" width="1" height="1" fill="#15171c"></rect><rect x="48" y="7" width="1" height="1" fill="#15171c"></rect><rect x="56" y="7" width="1" height="1" fill="#15171c"></rect><rect x="60" y="7" width="1" height="1" fill="#15171c"></rect><rect x="64" y="7" width="1" height="1" fill="#15171c"></rect><rect x="68" y="7" width="1" height="1" fill="#15171c"></rect><rect x="0" y="8" width="1" height="1" fill="#15171c"></rect><rect x="1" y="8" width="1" height="1" fill="#ffd23f"></rect><rect x="2" y="8" width="1" height="1" fill="#ffd23f"></rect><rect x="3" y="8" width="1" height="1" fill="#15171c"></rect><rect x="4" y="8" width="1" height="1" fill="#ffd23f"></rect><rect x="5" y="8" width="1" height="1" fill="#ffd23f"></rect><rect x="6" y="8" width="1" height="1" fill="#ffd23f"></rect><rect x="7" y="8" width="1" height="1" fill="#15171c"></rect><rect x="8" y="8" width="1" height="1" fill="#ffd23f"></rect><rect x="9" y="8" width="1" height="1" fill="#ffd23f"></rect><rect x="10" y="8" width="1" height="1" fill="#ffd23f"></rect><rect x="11" y="8" width="1" height="1" fill="#ffd23f"></rect><rect x="12" y="8" width="1" height="1" fill="#ffd23f"></rect><rect x="13" y="8" width="1" height="1" fill="#ffd23f"></rect><rect x="14" y="8" width="1" height="1" fill="#c58f1a"></rect><rect x="15" y="8" width="1" height="1" fill="#15171c"></rect><rect x="20" y="8" width="1" height="1" fill="#15171c"></rect><rect x="21" y="8" width="1" height="1" fill="#15171c"></rect><rect x="22" y="8" width="1" height="1" fill="#15171c"></rect><rect x="23" y="8" width="1" height="1" fill="#15171c"></rect><rect x="26" y="8" width="1" height="1" fill="#15171c"></rect><rect x="30" y="8" width="1" height="1" fill="#15171c"></rect><rect x="32" y="8" width="1" height="1" fill="#15171c"></rect><rect x="33" y="8" width="1" height="1" fill="#15171c"></rect><rect x="34" y="8" width="1" height="1" fill="#15171c"></rect><rect x="35" y="8" width="1" height="1" fill="#15171c"></rect><rect x="36" y="8" width="1" height="1" fill="#15171c"></rect><rect x="38" y="8" width="1" height="1" fill="#15171c"></rect><rect x="42" y="8" width="1" height="1" fill="#15171c"></rect><rect x="49" y="8" width="1" height="1" fill="#15171c"></rect><rect x="50" y="8" width="1" height="1" fill="#15171c"></rect><rect x="51" y="8" width="1" height="1" fill="#15171c"></rect><rect x="56" y="8" width="1" height="1" fill="#15171c"></rect><rect x="60" y="8" width="1" height="1" fill="#15171c"></rect><rect x="61" y="8" width="1" height="1" fill="#15171c"></rect><rect x="62" y="8" width="1" height="1" fill="#15171c"></rect><rect x="63" y="8" width="1" height="1" fill="#15171c"></rect><rect x="64" y="8" width="1" height="1" fill="#15171c"></rect><rect x="68" y="8" width="1" height="1" fill="#15171c"></rect><rect x="0" y="9" width="1" height="1" fill="#15171c"></rect><rect x="1" y="9" width="1" height="1" fill="#ffd23f"></rect><rect x="2" y="9" width="1" height="1" fill="#ffd23f"></rect><rect x="3" y="9" width="1" height="1" fill="#15171c"></rect><rect x="4" y="9" width="1" height="1" fill="#ffd23f"></rect><rect x="5" y="9" width="1" height="1" fill="#ffd23f"></rect><rect x="6" y="9" width="1" height="1" fill="#ffd23f"></rect><rect x="7" y="9" width="1" height="1" fill="#ffd23f"></rect><rect x="8" y="9" width="1" height="1" fill="#15171c"></rect><rect x="9" y="9" width="1" height="1" fill="#ffd23f"></rect><rect x="10" y="9" width="1" height="1" fill="#ffd23f"></rect><rect x="11" y="9" width="1" height="1" fill="#ffd23f"></rect><rect x="12" y="9" width="1" height="1" fill="#ffd23f"></rect><rect x="13" y="9" width="1" height="1" fill="#ffd23f"></rect><rect x="14" y="9" width="1" height="1" fill="#c58f1a"></rect><rect x="15" y="9" width="1" height="1" fill="#15171c"></rect><rect x="20" y="9" width="1" height="1" fill="#15171c"></rect><rect x="22" y="9" width="1" height="1" fill="#15171c"></rect><rect x="26" y="9" width="1" height="1" fill="#15171c"></rect><rect x="30" y="9" width="1" height="1" fill="#15171c"></rect><rect x="32" y="9" width="1" height="1" fill="#15171c"></rect><rect x="36" y="9" width="1" height="1" fill="#15171c"></rect><rect x="38" y="9" width="1" height="1" fill="#15171c"></rect><rect x="42" y="9" width="1" height="1" fill="#15171c"></rect><rect x="52" y="9" width="1" height="1" fill="#15171c"></rect><rect x="56" y="9" width="1" height="1" fill="#15171c"></rect><rect x="60" y="9" width="1" height="1" fill="#15171c"></rect><rect x="64" y="9" width="1" height="1" fill="#15171c"></rect><rect x="68" y="9" width="1" height="1" fill="#15171c"></rect><rect x="0" y="10" width="1" height="1" fill="#15171c"></rect><rect x="1" y="10" width="1" height="1" fill="#ffd23f"></rect><rect x="2" y="10" width="1" height="1" fill="#ffd23f"></rect><rect x="3" y="10" width="1" height="1" fill="#15171c"></rect><rect x="4" y="10" width="1" height="1" fill="#ffd23f"></rect><rect x="5" y="10" width="1" height="1" fill="#ffd23f"></rect><rect x="6" y="10" width="1" height="1" fill="#ffd23f"></rect><rect x="7" y="10" width="1" height="1" fill="#ffd23f"></rect><rect x="8" y="10" width="1" height="1" fill="#ffd23f"></rect><rect x="9" y="10" width="1" height="1" fill="#15171c"></rect><rect x="10" y="10" width="1" height="1" fill="#ffd23f"></rect><rect x="11" y="10" width="1" height="1" fill="#ffd23f"></rect><rect x="12" y="10" width="1" height="1" fill="#ffd23f"></rect><rect x="13" y="10" width="1" height="1" fill="#ffd23f"></rect><rect x="14" y="10" width="1" height="1" fill="#c58f1a"></rect><rect x="15" y="10" width="1" height="1" fill="#15171c"></rect><rect x="20" y="10" width="1" height="1" fill="#15171c"></rect><rect x="23" y="10" width="1" height="1" fill="#15171c"></rect><rect x="26" y="10" width="1" height="1" fill="#15171c"></rect><rect x="30" y="10" width="1" height="1" fill="#15171c"></rect><rect x="32" y="10" width="1" height="1" fill="#15171c"></rect><rect x="36" y="10" width="1" height="1" fill="#15171c"></rect><rect x="38" y="10" width="1" height="1" fill="#15171c"></rect><rect x="42" y="10" width="1" height="1" fill="#15171c"></rect><rect x="52" y="10" width="1" height="1" fill="#15171c"></rect><rect x="56" y="10" width="1" height="1" fill="#15171c"></rect><rect x="60" y="10" width="1" height="1" fill="#15171c"></rect><rect x="64" y="10" width="1" height="1" fill="#15171c"></rect><rect x="68" y="10" width="1" height="1" fill="#15171c"></rect><rect x="0" y="11" width="1" height="1" fill="#15171c"></rect><rect x="1" y="11" width="1" height="1" fill="#ffd23f"></rect><rect x="2" y="11" width="1" height="1" fill="#ffd23f"></rect><rect x="3" y="11" width="1" height="1" fill="#15171c"></rect><rect x="4" y="11" width="1" height="1" fill="#ffd23f"></rect><rect x="5" y="11" width="1" height="1" fill="#ffd23f"></rect><rect x="6" y="11" width="1" height="1" fill="#ffd23f"></rect><rect x="7" y="11" width="1" height="1" fill="#ffd23f"></rect><rect x="8" y="11" width="1" height="1" fill="#ffd23f"></rect><rect x="9" y="11" width="1" height="1" fill="#ffd23f"></rect><rect x="10" y="11" width="1" height="1" fill="#15171c"></rect><rect x="11" y="11" width="1" height="1" fill="#ffd23f"></rect><rect x="12" y="11" width="1" height="1" fill="#ffd23f"></rect><rect x="13" y="11" width="1" height="1" fill="#ffd23f"></rect><rect x="14" y="11" width="1" height="1" fill="#c58f1a"></rect><rect x="15" y="11" width="1" height="1" fill="#15171c"></rect><rect x="20" y="11" width="1" height="1" fill="#15171c"></rect><rect x="24" y="11" width="1" height="1" fill="#15171c"></rect><rect x="27" y="11" width="1" height="1" fill="#15171c"></rect><rect x="28" y="11" width="1" height="1" fill="#15171c"></rect><rect x="29" y="11" width="1" height="1" fill="#15171c"></rect><rect x="32" y="11" width="1" height="1" fill="#15171c"></rect><rect x="36" y="11" width="1" height="1" fill="#15171c"></rect><rect x="38" y="11" width="1" height="1" fill="#15171c"></rect><rect x="39" y="11" width="1" height="1" fill="#15171c"></rect><rect x="40" y="11" width="1" height="1" fill="#15171c"></rect><rect x="41" y="11" width="1" height="1" fill="#15171c"></rect><rect x="48" y="11" width="1" height="1" fill="#15171c"></rect><rect x="49" y="11" width="1" height="1" fill="#15171c"></rect><rect x="50" y="11" width="1" height="1" fill="#15171c"></rect><rect x="51" y="11" width="1" height="1" fill="#15171c"></rect><rect x="56" y="11" width="1" height="1" fill="#15171c"></rect><rect x="60" y="11" width="1" height="1" fill="#15171c"></rect><rect x="64" y="11" width="1" height="1" fill="#15171c"></rect><rect x="68" y="11" width="1" height="1" fill="#15171c"></rect><rect x="0" y="12" width="1" height="1" fill="#15171c"></rect><rect x="1" y="12" width="1" height="1" fill="#ffd23f"></rect><rect x="2" y="12" width="1" height="1" fill="#ffd23f"></rect><rect x="3" y="12" width="1" height="1" fill="#15171c"></rect><rect x="4" y="12" width="1" height="1" fill="#ffd23f"></rect><rect x="5" y="12" width="1" height="1" fill="#ffd23f"></rect><rect x="6" y="12" width="1" height="1" fill="#ffd23f"></rect><rect x="7" y="12" width="1" height="1" fill="#ffd23f"></rect><rect x="8" y="12" width="1" height="1" fill="#ffd23f"></rect><rect x="9" y="12" width="1" height="1" fill="#ffd23f"></rect><rect x="10" y="12" width="1" height="1" fill="#ffd23f"></rect><rect x="11" y="12" width="1" height="1" fill="#15171c"></rect><rect x="12" y="12" width="1" height="1" fill="#ffd23f"></rect><rect x="13" y="12" width="1" height="1" fill="#ffd23f"></rect><rect x="14" y="12" width="1" height="1" fill="#c58f1a"></rect><rect x="15" y="12" width="1" height="1" fill="#15171c"></rect><rect x="0" y="13" width="1" height="1" fill="#15171c"></rect><rect x="1" y="13" width="1" height="1" fill="#ffd23f"></rect><rect x="2" y="13" width="1" height="1" fill="#c58f1a"></rect><rect x="3" y="13" width="1" height="1" fill="#c58f1a"></rect><rect x="4" y="13" width="1" height="1" fill="#c58f1a"></rect><rect x="5" y="13" width="1" height="1" fill="#c58f1a"></rect><rect x="6" y="13" width="1" height="1" fill="#c58f1a"></rect><rect x="7" y="13" width="1" height="1" fill="#c58f1a"></rect><rect x="8" y="13" width="1" height="1" fill="#c58f1a"></rect><rect x="9" y="13" width="1" height="1" fill="#c58f1a"></rect><rect x="10" y="13" width="1" height="1" fill="#c58f1a"></rect><rect x="11" y="13" width="1" height="1" fill="#c58f1a"></rect><rect x="12" y="13" width="1" height="1" fill="#c58f1a"></rect><rect x="13" y="13" width="1" height="1" fill="#c58f1a"></rect><rect x="14" y="13" width="1" height="1" fill="#c58f1a"></rect><rect x="15" y="13" width="1" height="1" fill="#15171c"></rect><rect x="0" y="14" width="1" height="1" fill="#15171c"></rect><rect x="1" y="14" width="1" height="1" fill="#ffd23f"></rect><rect x="2" y="14" width="1" height="1" fill="#c58f1a"></rect><rect x="3" y="14" width="1" height="1" fill="#c58f1a"></rect><rect x="4" y="14" width="1" height="1" fill="#c58f1a"></rect><rect x="5" y="14" width="1" height="1" fill="#c58f1a"></rect><rect x="6" y="14" width="1" height="1" fill="#c58f1a"></rect><rect x="7" y="14" width="1" height="1" fill="#c58f1a"></rect><rect x="8" y="14" width="1" height="1" fill="#c58f1a"></rect><rect x="9" y="14" width="1" height="1" fill="#c58f1a"></rect><rect x="10" y="14" width="1" height="1" fill="#c58f1a"></rect><rect x="11" y="14" width="1" height="1" fill="#c58f1a"></rect><rect x="12" y="14" width="1" height="1" fill="#c58f1a"></rect><rect x="13" y="14" width="1" height="1" fill="#c58f1a"></rect><rect x="14" y="14" width="1" height="1" fill="#c58f1a"></rect><rect x="15" y="14" width="1" height="1" fill="#15171c"></rect><rect x="0" y="15" width="1" height="1" fill="#15171c"></rect><rect x="1" y="15" width="1" height="1" fill="#15171c"></rect><rect x="2" y="15" width="1" height="1" fill="#15171c"></rect><rect x="3" y="15" width="1" height="1" fill="#15171c"></rect><rect x="4" y="15" width="1" height="1" fill="#15171c"></rect><rect x="5" y="15" width="1" height="1" fill="#15171c"></rect><rect x="6" y="15" width="1" height="1" fill="#15171c"></rect><rect x="7" y="15" width="1" height="1" fill="#15171c"></rect><rect x="8" y="15" width="1" height="1" fill="#15171c"></rect><rect x="9" y="15" width="1" height="1" fill="#15171c"></rect><rect x="10" y="15" width="1" height="1" fill="#15171c"></rect><rect x="11" y="15" width="1" height="1" fill="#15171c"></rect><rect x="12" y="15" width="1" height="1" fill="#15171c"></rect><rect x="13" y="15" width="1" height="1" fill="#15171c"></rect><rect x="14" y="15" width="1" height="1" fill="#15171c"></rect><rect x="15" y="15" width="1" height="1" fill="#15171c"></rect>
</svg>